<?xml version="1.0" encoding="utf-8"?>
<!-- Generator: Adobe Illustrator 18.1.0, SVG Export Plug-In . SVG Version: 6.00 Build 0)  -->
<!DOCTYPE svg PUBLIC "-//W3C//DTD SVG 1.1//EN" "http://www.w3.org/Graphics/SVG/1.1/DTD/svg11.dtd">
<svg version="1.1" id="Layer_1" xmlns="http://www.w3.org/2000/svg" xmlns:xlink="http://www.w3.org/1999/xlink" x="0px" y="0px"
	 viewBox="-467 269 24 24" enable-background="new -467 269 24 24" xml:space="preserve">
<path fill="#FFFFFF" d="M-455,271c0.276,0,0.512,0.098,0.707,0.293S-454,271.724-454,272v15.586l5.289-5.297
	c0.193-0.193,0.43-0.289,0.711-0.289c0.287,0,0.525,0.095,0.715,0.285S-447,282.713-447,283c0,0.281-0.096,0.518-0.289,0.711l-7,7
	c-0.193,0.193-0.43,0.289-0.711,0.289s-0.518-0.096-0.711-0.289l-7-7c-0.193-0.193-0.289-0.43-0.289-0.711
	c0-0.287,0.095-0.525,0.285-0.715S-462.287,282-462,282c0.281,0,0.518,0.096,0.711,0.289l5.289,5.297V272
	c0-0.276,0.098-0.512,0.293-0.707S-455.276,271-455,271z"/>
</svg>
