<?xml version="1.0" encoding="utf-8"?>
<!-- Generator: Adobe Illustrator 18.1.0, SVG Export Plug-In . SVG Version: 6.00 Build 0)  -->
<!DOCTYPE svg PUBLIC "-//W3C//DTD SVG 1.1//EN" "http://www.w3.org/Graphics/SVG/1.1/DTD/svg11.dtd">
<svg version="1.1" xmlns="http://www.w3.org/2000/svg" xmlns:xlink="http://www.w3.org/1999/xlink" x="0px" y="0px"
	 viewBox="0 0 366 270.5" enable-background="new 0 0 366 270.5" xml:space="preserve">
<g id="Layer_1">
	<rect x="-368.627" y="3.636" fill="#FFFFFF" stroke="#000000" stroke-miterlimit="10" width="359.16" height="263.375"/>
	<line fill="none" stroke="#000000" stroke-miterlimit="10" x1="-369" y1="26.5" x2="-10" y2="26.5"/>
	<rect x="-343.98" y="54.314" width="68.32" height="15.793"/>
	<rect x="-343.98" y="81.011" width="68.32" height="15.793"/>
	<rect x="-343.98" y="109.066" width="68.32" height="15.793"/>
	<rect x="-343.98" y="157.956" width="68.32" height="15.793"/>
	<rect x="-343.98" y="184.653" width="68.32" height="15.793"/>
	<rect x="-343.98" y="212.707" width="68.32" height="15.793"/>
	<rect x="-265.247" y="54.314" width="225.787" height="15.793"/>
	<rect x="-265.247" y="81.011" width="173.049" height="15.793"/>
	<rect x="-265.247" y="109.066" width="115.468" height="15.793"/>
	<rect x="-265.247" y="157.956" width="163.348" height="15.793"/>
	<rect x="-265.247" y="184.653" width="57.734" height="15.793"/>
	<rect x="-265.247" y="212.707" width="161.309" height="15.793"/>
	<path fill="#FFFFFF" stroke="#000000" stroke-miterlimit="10" d="M-356.365,18.75L-356.365,18.75c-2.412,0-4.385-1.973-4.385-4.385
		v0c0-2.412,1.973-4.385,4.385-4.385h0c2.412,0,4.385,1.973,4.385,4.385v0C-351.98,16.777-353.953,18.75-356.365,18.75z"/>
	<path fill="#FFFFFF" stroke="#000000" stroke-miterlimit="10" d="M-340.682,18.75L-340.682,18.75c-2.412,0-4.385-1.973-4.385-4.385
		v0c0-2.412,1.973-4.385,4.385-4.385l0,0c2.412,0,4.385,1.973,4.385,4.385v0C-336.297,16.777-338.271,18.75-340.682,18.75z"/>
	<path fill="#FFFFFF" stroke="#000000" stroke-miterlimit="10" d="M-325,18.75L-325,18.75c-2.412,0-4.385-1.973-4.385-4.385v0
		c0-2.412,1.973-4.385,4.385-4.385l0,0c2.412,0,4.385,1.973,4.385,4.385v0C-320.615,16.777-322.588,18.75-325,18.75z"/>
</g>
<g id="Layer_2">
	<rect y="-0.5" display="none" stroke="#FFFFFF" stroke-miterlimit="10" width="366" height="271"/>
	
		<rect x="3.373" y="3.636" fill="none" stroke="#FFFFFF" stroke-width="3" stroke-miterlimit="10" width="359.16" height="263.375"/>
	<line fill="none" stroke="#FFFFFF" stroke-width="3" stroke-miterlimit="10" x1="3" y1="27.5" x2="362" y2="27.5"/>
	<rect x="28.02" y="54.314" fill="#FFFFFF" width="68.32" height="15.793"/>
	<rect x="28.02" y="81.011" fill="#FFFFFF" width="68.32" height="15.793"/>
	<rect x="28.02" y="109.066" fill="#FFFFFF" width="68.32" height="15.793"/>
	<rect x="28.02" y="157.956" fill="#FFFFFF" width="68.32" height="15.793"/>
	<rect x="28.02" y="184.653" fill="#FFFFFF" width="68.32" height="15.793"/>
	<rect x="28.02" y="212.707" fill="#FFFFFF" width="68.32" height="15.793"/>
	<rect x="106.753" y="54.314" fill="#FFFFFF" width="225.787" height="15.793"/>
	<rect x="106.753" y="81.011" fill="#FFFFFF" width="173.049" height="15.793"/>
	<rect x="106.753" y="109.066" fill="#FFFFFF" width="115.468" height="15.793"/>
	<rect x="106.753" y="157.956" fill="#FFFFFF" width="163.348" height="15.793"/>
	<rect x="106.753" y="184.653" fill="#FFFFFF" width="57.734" height="15.793"/>
	<rect x="106.753" y="212.707" fill="#FFFFFF" width="161.309" height="15.793"/>
	<path fill="none" stroke="#FFFFFF" stroke-width="2" stroke-miterlimit="10" d="M15.635,18.75L15.635,18.75
		c-2.412,0-4.385-1.973-4.385-4.385v0c0-2.412,1.973-4.385,4.385-4.385h0c2.412,0,4.385,1.973,4.385,4.385v0
		C20.02,16.777,18.047,18.75,15.635,18.75z"/>
	<path fill="none" stroke="#FFFFFF" stroke-width="2" stroke-miterlimit="10" d="M31.318,18.75L31.318,18.75
		c-2.412,0-4.385-1.973-4.385-4.385v0c0-2.412,1.973-4.385,4.385-4.385h0c2.412,0,4.385,1.973,4.385,4.385v0
		C35.703,16.777,33.729,18.75,31.318,18.75z"/>
	<path fill="none" stroke="#FFFFFF" stroke-width="2" stroke-miterlimit="10" d="M47,18.75L47,18.75
		c-2.412,0-4.385-1.973-4.385-4.385v0c0-2.412,1.973-4.385,4.385-4.385h0c2.412,0,4.385,1.973,4.385,4.385v0
		C51.385,16.777,49.412,18.75,47,18.75z"/>
</g>
</svg>
